<?xml version="1.0" encoding="UTF-8"?>
<svg width="1019px" height="1018px" viewBox="0 0 1019 1018" version="1.1" xmlns="http://www.w3.org/2000/svg" xmlns:xlink="http://www.w3.org/1999/xlink">
    <!-- Generator: Sketch 63.1 (92452) - https://sketch.com -->
    <title>Group 2</title>
    <desc>Created with Sketch.</desc>
    <g id="Page-1" stroke="none" stroke-width="1" fill="none" fill-rule="evenodd" opacity="0.773460751">
        <g id="Desktop" transform="translate(-5.000000, -2.000000)">
            <g id="Group-2" transform="translate(3.758601, 1.742308)">
                <circle id="Oval" stroke="#F7B500" stroke-width="3" fill-opacity="0" fill="#000000" opacity="0.82" transform="translate(959.588954, 987.328784) rotate(-35.000000) translate(-959.588954, -987.328784) " cx="959.588954" cy="987.328784" r="11.5"></circle>
                <circle id="Oval" stroke="#F7B500" stroke-width="3" fill-opacity="0" fill="#000000" opacity="0.79" transform="translate(977.356547, 782.478486) rotate(-275.000000) translate(-977.356547, -782.478486) " cx="977.356547" cy="782.478486" r="10"></circle>
                <circle id="Oval" stroke="#F7B500" stroke-width="3" fill-opacity="0" fill="#000000" opacity="0.95" transform="translate(946.957751, 442.379060) rotate(-45.000000) translate(-946.957751, -442.379060) " cx="946.957751" cy="442.37906" r="9.5"></circle>
                <circle id="Oval" stroke="#F7B500" stroke-width="3" fill-opacity="0" fill="#000000" opacity="0.74" transform="translate(750.432856, 993.640233) rotate(-87.000000) translate(-750.432856, -993.640233) " cx="750.432856" cy="993.640233" r="10.5"></circle>
                <circle id="Oval" stroke="#F7B500" stroke-width="3" fill-opacity="0" fill="#000000" opacity="0.94" transform="translate(753.019872, 626.955311) rotate(-293.000000) translate(-753.019872, -626.955311) " cx="753.019872" cy="626.955311" r="11.5"></circle>
                <circle id="Oval" stroke="#F7B500" stroke-width="3" fill-opacity="0" fill="#000000" opacity="0.74" transform="translate(769.557135, 471.466325) rotate(-8.000000) translate(-769.557135, -471.466325) " cx="769.557135" cy="471.466325" r="9.5"></circle>
                <circle id="Oval" stroke="#F7B500" stroke-width="3" fill-opacity="0" fill="#000000" opacity="0.74" transform="translate(747.838006, 72.808638) rotate(-276.000000) translate(-747.838006, -72.808638) " cx="747.838006" cy="72.8086382" r="13"></circle>
                <circle id="Oval" stroke="#F7B500" stroke-width="3" fill-opacity="0" fill="#000000" opacity="0.88" transform="translate(614.581024, 309.937961) rotate(-20.000000) translate(-614.581024, -309.937961) " cx="614.581024" cy="309.937961" r="12"></circle>
                <circle id="Oval" stroke="#F7B500" stroke-width="3" fill-opacity="0" fill="#000000" opacity="0.71" transform="translate(367.181121, 952.774553) rotate(-266.000000) translate(-367.181121, -952.774553) " cx="367.181121" cy="952.774553" r="11.5"></circle>
                <circle id="Oval" stroke="#F7B500" stroke-width="3" fill-opacity="0" fill="#000000" opacity="0.7" transform="translate(424.011336, 427.455435) rotate(-302.000000) translate(-424.011336, -427.455435) " cx="424.011336" cy="427.455435" r="10.5"></circle>
                <circle id="Oval" stroke="#F7B500" stroke-width="3" fill-opacity="0" fill="#000000" transform="translate(378.477312, 39.471339) rotate(-238.000000) translate(-378.477312, -39.471339) " cx="378.477312" cy="39.4713386" r="12.5"></circle>
                <circle id="Oval" stroke="#F7B500" stroke-width="3" fill-opacity="0" fill="#000000" opacity="0.77" transform="translate(315.994304, 979.565062) rotate(-319.000000) translate(-315.994304, -979.565062) " cx="315.994304" cy="979.565062" r="8"></circle>
                <circle id="Oval" stroke="#F7B500" stroke-width="3" fill-opacity="0" fill="#000000" opacity="0.8" transform="translate(127.947362, 848.022313) rotate(-139.000000) translate(-127.947362, -848.022313) " cx="127.947362" cy="848.022313" r="8.5"></circle>
                <circle id="Oval" stroke="#F7B500" stroke-width="3" fill-opacity="0" fill="#000000" opacity="0.91" transform="translate(144.036239, 489.758075) rotate(-67.000000) translate(-144.036239, -489.758075) " cx="144.036239" cy="489.758075" r="12"></circle>
                <polygon id="Triangle" fill="#32C5FF" opacity="0.93" transform="translate(816.814779, 32.123840) rotate(-170.000000) translate(-816.814779, -32.123840) " points="816.814779 22.1238404 826.814779 42.1238404 806.814779 42.1238404"></polygon>
                <polygon id="Triangle" fill="#32C5FF" opacity="0.93" transform="translate(727.587608, 140.031676) rotate(-354.000000) translate(-727.587608, -140.031676) " points="727.587608 127.531676 740.087608 152.531676 715.087608 152.531676"></polygon>
                <polygon id="Triangle" fill="#32C5FF" opacity="0.79" transform="translate(669.852547, 999.059941) rotate(-56.000000) translate(-669.852547, -999.059941) " points="669.852547 985.559941 683.352547 1012.55994 656.352547 1012.55994"></polygon>
                <polygon id="Triangle" fill="#32C5FF" opacity="0.83" transform="translate(668.911604, 695.950452) rotate(-150.000000) translate(-668.911604, -695.950452) " points="668.911604 683.450452 681.411604 708.450452 656.411604 708.450452"></polygon>
                <polygon id="Triangle" fill="#32C5FF" opacity="0.99" transform="translate(662.814889, 515.034966) rotate(-318.000000) translate(-662.814889, -515.034966) " points="662.814889 504.034966 673.814889 526.034966 651.814889 526.034966"></polygon>
                <polygon id="Triangle" fill="#32C5FF" opacity="0.82" transform="translate(592.559760, 403.599191) rotate(-242.000000) translate(-592.559760, -403.599191) " points="592.55976 392.099191 604.05976 415.099191 581.05976 415.099191"></polygon>
                <polygon id="Triangle" fill="#32C5FF" opacity="0.93" transform="translate(531.122502, 970.733714) rotate(-279.000000) translate(-531.122502, -970.733714) " points="531.122502 961.733714 540.122502 979.733714 522.122502 979.733714"></polygon>
                <polygon id="Triangle" fill="#32C5FF" opacity="0.88" transform="translate(507.124687, 248.519495) rotate(-359.000000) translate(-507.124687, -248.519495) " points="507.124687 235.519495 520.124687 261.519495 494.124687 261.519495"></polygon>
                <polygon id="Triangle" fill="#32C5FF" opacity="0.7" transform="translate(554.830314, 14.500000) rotate(-243.000000) translate(-554.830314, -14.500000) " points="554.830314 4 565.330314 25 544.330314 25"></polygon>
                <polygon id="Triangle" fill="#32C5FF" opacity="0.75" transform="translate(358.037018, 525.036178) rotate(-103.000000) translate(-358.037018, -525.036178) " points="358.037018 511.536178 371.537018 538.536178 344.537018 538.536178"></polygon>
                <polygon id="Triangle" fill="#32C5FF" opacity="0.99" transform="translate(257.241215, 747.851290) rotate(-270.000000) translate(-257.241215, -747.851290) " points="257.241215 737.85129 267.241215 757.85129 247.241215 757.85129"></polygon>
                <polygon id="Triangle" fill="#32C5FF" opacity="0.83" transform="translate(66.692573, 976.543507) rotate(-342.000000) translate(-66.692573, -976.543507) " points="66.6925732 965.543507 77.6925732 987.543507 55.6925732 987.543507"></polygon>
                <polygon id="Star" fill="#44D7B6" opacity="0.76" transform="translate(1012.091125, 893.453582) rotate(-356.000000) translate(-1012.091125, -893.453582) " points="1012.09112 901.203582 1002.98045 905.993346 1004.72044 895.848464 997.349749 888.663819 1007.53579 887.183701 1012.09112 877.953582 1016.64646 887.183701 1026.8325 888.663819 1019.46181 895.848464 1021.2018 905.993346"></polygon>
                <polygon id="Star" fill="#44D7B6" opacity="0.75" transform="translate(983.557884, 620.255665) rotate(-234.000000) translate(-983.557884, -620.255665) " points="983.557884 627.505665 975.034998 631.986412 976.662724 622.496039 969.767564 615.774919 979.296441 614.390292 983.557884 605.755665 987.819327 614.390292 997.348203 615.774919 990.453044 622.496039 992.08077 631.986412"></polygon>
                <polygon id="Star" fill="#44D7B6" opacity="0.83" transform="translate(950.878418, 251.124448) rotate(-146.000000) translate(-950.878418, -251.124448) " points="950.878418 257.124448 943.824995 260.832652 945.172079 252.97855 939.46574 247.416244 947.351707 246.270346 950.878418 239.124448 954.40513 246.270346 962.291096 247.416244 956.584757 252.97855 957.931841 260.832652"></polygon>
                <polygon id="Star" fill="#44D7B6" opacity="0.76" transform="translate(842.752025, 945.796366) rotate(-128.000000) translate(-842.752025, -945.796366) " points="842.752025 952.046366 835.40471 955.909078 836.807922 947.727722 830.863819 941.933653 839.078367 940.74001 842.752025 933.296366 846.425683 940.74001 854.640232 941.933653 848.696129 947.727722 850.099341 955.909078"></polygon>
                <polygon id="Star" fill="#44D7B6" opacity="0.85" transform="translate(854.339729, 730.917754) rotate(-18.000000) translate(-854.339729, -730.917754) " points="854.339729 737.167754 846.992413 741.030466 848.395626 732.84911 842.451523 727.055041 850.666071 725.861398 854.339729 718.417754 858.013387 725.861398 866.227936 727.055041 860.283832 732.84911 861.687045 741.030466"></polygon>
                <polygon id="Star" fill="#44D7B6" opacity="0.85" transform="translate(730.802953, 726.899448) rotate(-326.000000) translate(-730.802953, -726.899448) " points="730.802953 734.149448 722.280067 738.630194 723.907793 729.139821 717.012633 722.418702 726.54151 721.034075 730.802953 712.399448 735.064396 721.034075 744.593272 722.418702 737.698113 729.139821 739.325839 738.630194"></polygon>
                <polygon id="Star" fill="#44D7B6" opacity="0.74" transform="translate(711.945938, 274.887014) rotate(-246.000000) translate(-711.945938, -274.887014) " points="711.945938 281.137014 704.598622 284.999727 706.001834 276.81837 700.057731 271.024302 708.27228 269.830658 711.945938 262.387014 715.619595 269.830658 723.834144 271.024302 717.890041 276.81837 719.293253 284.999727"></polygon>
                <polygon id="Star" fill="#44D7B6" opacity="0.7" transform="translate(636.704179, 100.231271) rotate(-219.000000) translate(-636.704179, -100.231271) " points="636.704179 105.481271 630.532434 108.72595 631.711132 101.85361 626.718085 96.9865927 633.618306 95.983932 636.704179 89.7312712 639.790051 95.983932 646.690272 96.9865927 641.697226 101.85361 642.875924 108.72595"></polygon>
                <polygon id="Star" fill="#44D7B6" opacity="0.86" transform="translate(392.389855, 858.120079) rotate(-273.000000) translate(-392.389855, -858.120079) " points="392.389855 865.120079 384.160861 869.446317 385.732459 860.283198 379.075064 853.793841 388.275358 852.45696 392.389855 844.120079 396.504352 852.45696 405.704646 853.793841 399.04725 860.283198 400.618848 869.446317"></polygon>
                <polygon id="Star" fill="#44D7B6" opacity="0.96" transform="translate(255.622888, 883.841001) rotate(-155.000000) translate(-255.622888, -883.841001) " points="255.622888 891.091001 247.100002 895.571747 248.727728 886.081374 241.832568 879.360254 251.361445 877.975628 255.622888 869.341001 259.884331 877.975628 269.413207 879.360254 262.518048 886.081374 264.145774 895.571747"></polygon>
                <polygon id="Star" fill="#44D7B6" opacity="0.77" transform="translate(280.360911, 470.252368) rotate(-47.000000) translate(-280.360911, -470.252368) " points="280.360911 478.252368 270.956347 483.19664 272.752459 472.724504 265.144007 465.308096 275.658629 463.780232 280.360911 454.252368 285.063193 463.780232 295.577816 465.308096 287.969364 472.724504 289.765475 483.19664"></polygon>
                <polygon id="Star" fill="#44D7B6" opacity="0.96" transform="translate(101.110777, 764.160358) rotate(-279.000000) translate(-101.110777, -764.160358) " points="101.110777 771.410358 92.5878912 775.891105 94.2156176 766.400732 87.3204579 759.679612 96.8493343 758.294985 101.110777 749.660358 105.37222 758.294985 114.901097 759.679612 108.005937 766.400732 109.633664 775.891105"></polygon>
                <polygon id="Star" fill="#44D7B6" opacity="0.82" transform="translate(98.436678, 274.295251) rotate(-284.000000) translate(-98.436678, -274.295251) " points="98.436678 280.295251 91.3832549 284.003455 92.7303389 276.149353 87.0239998 270.587047 94.9099665 269.441149 98.436678 262.295251 101.963389 269.441149 109.849356 270.587047 104.143017 276.149353 105.490101 284.003455"></polygon>
                <circle id="Oval" fill="#B620E0" opacity="0.84" transform="translate(919.026009, 49.454645) rotate(-193.000000) translate(-919.026009, -49.454645) " cx="919.026009" cy="49.454645" r="4.5"></circle>
                <circle id="Oval" fill="#B620E0" opacity="0.83" transform="translate(866.154251, 193.684488) rotate(-12.000000) translate(-866.154251, -193.684488) " cx="866.154251" cy="193.684488" r="7.5"></circle>
                <circle id="Oval" fill="#B620E0" opacity="0.7" transform="translate(665.666529, 802.282818) rotate(-12.000000) translate(-665.666529, -802.282818) " cx="665.666529" cy="802.282818" r="7.5"></circle>
                <circle id="Oval" fill="#B620E0" opacity="0.96" transform="translate(661.944245, 204.076433) rotate(-216.000000) translate(-661.944245, -204.076433) " cx="661.944245" cy="204.076433" r="5.5"></circle>
                <circle id="Oval" fill="#B620E0" opacity="0.82" transform="translate(461.873114, 609.012412) rotate(-261.000000) translate(-461.873114, -609.012412) " cx="461.873114" cy="609.012412" r="7.5"></circle>
                <circle id="Oval" fill="#B620E0" opacity="0.8" transform="translate(357.637788, 649.658512) rotate(-345.000000) translate(-357.637788, -649.658512) " cx="357.637788" cy="649.658512" r="7.5"></circle>
                <circle id="Oval" fill="#B620E0" opacity="0.78" transform="translate(313.971927, 138.188617) rotate(-30.000000) translate(-313.971927, -138.188617) " cx="313.971927" cy="138.188617" r="5.5"></circle>
                <circle id="Oval" fill="#B620E0" opacity="0.75" transform="translate(257.537161, 63.118883) rotate(-333.000000) translate(-257.537161, -63.118883) " cx="257.537161" cy="63.1188832" r="8"></circle>
                <circle id="Oval" fill="#B620E0" opacity="0.7" transform="translate(200.585779, 966.432861) rotate(-184.000000) translate(-200.585779, -966.432861) " cx="200.585779" cy="966.432861" r="6.5"></circle>
                <circle id="Oval" fill="#B620E0" opacity="0.83" transform="translate(200.683125, 9.444460) rotate(-52.000000) translate(-200.683125, -9.444460) " cx="200.683125" cy="9.44446025" r="5"></circle>
                <circle id="Oval" fill="#B620E0" opacity="0.74" transform="translate(93.609274, 637.388474) rotate(-358.000000) translate(-93.609274, -637.388474) " cx="93.6092742" cy="637.388474" r="5.5"></circle>
                <circle id="Oval" fill="#B620E0" opacity="0.78" transform="translate(31.283261, 347.019683) rotate(-33.000000) translate(-31.283261, -347.019683) " cx="31.2832611" cy="347.019683" r="6.5"></circle>
                <circle id="Oval" fill="#B620E0" opacity="0.85" transform="translate(7.000000, 174.550561) rotate(-64.000000) translate(-7.000000, -174.550561) " cx="7" cy="174.550561" r="5"></circle>
                <rect id="Rectangle" fill="#6236FF" opacity="0.74" transform="translate(885.677085, 469.296340) rotate(-98.000000) translate(-885.677085, -469.296340) " x="879.677085" y="468.79634" width="12" height="1" rx="0.5"></rect>
                <rect id="Rectangle" fill="#6236FF" opacity="0.88" transform="translate(802.184127, 355.628546) rotate(-246.000000) translate(-802.184127, -355.628546) " x="794.184127" y="354.628546" width="16" height="2" rx="1"></rect>
                <rect id="Rectangle" fill="#6236FF" opacity="0.84" transform="translate(531.635103, 827.679181) rotate(-340.000000) translate(-531.635103, -827.679181) " x="522.635103" y="826.679181" width="18" height="2" rx="1"></rect>
                <rect id="Rectangle" fill="#6236FF" opacity="0.97" transform="translate(540.792589, 515.234495) rotate(-230.000000) translate(-540.792589, -515.234495) " x="533.792589" y="514.734495" width="14" height="1" rx="0.5"></rect>
                <rect id="Rectangle" fill="#6236FF" opacity="0.71" transform="translate(432.677201, 312.084917) rotate(-179.000000) translate(-432.677201, -312.084917) " x="426.177201" y="311.584917" width="13" height="1" rx="0.5"></rect>
                <rect id="Rectangle" fill="#6236FF" opacity="0.88" transform="translate(374.853554, 175.671168) rotate(-116.000000) translate(-374.853554, -175.671168) " x="368.853554" y="175.171168" width="12" height="1" rx="0.5"></rect>
                <rect id="Rectangle" fill="#6236FF" opacity="0.81" transform="translate(311.752431, 612.598641) rotate(-347.000000) translate(-311.752431, -612.598641) " x="302.752431" y="611.598641" width="18" height="2" rx="1"></rect>
                <rect id="Rectangle" fill="#6236FF" opacity="0.86" transform="translate(265.150467, 394.956330) rotate(-31.000000) translate(-265.150467, -394.956330) " x="257.650467" y="394.45633" width="15" height="1" rx="0.5"></rect>
                <rect id="Rectangle" fill="#6236FF" opacity="0.7" transform="translate(182.357439, 725.724023) rotate(-15.000000) translate(-182.357439, -725.724023) " x="172.857439" y="724.724023" width="19" height="2" rx="1"></rect>
                <rect id="Rectangle" fill="#6236FF" opacity="0.86" transform="translate(129.225978, 588.616171) rotate(-192.000000) translate(-129.225978, -588.616171) " x="123.225978" y="588.116171" width="12" height="1" rx="0.5"></rect>
                <rect id="Rectangle" fill="#6236FF" opacity="0.84" transform="translate(176.105264, 245.319815) rotate(-82.000000) translate(-176.105264, -245.319815) " x="168.105264" y="244.319815" width="16" height="2" rx="1"></rect>
                <rect id="Rectangle" fill="#6236FF" opacity="0.9" transform="translate(79.620282, 809.469469) rotate(-29.000000) translate(-79.620282, -809.469469) " x="70.1202816" y="808.469469" width="19" height="2" rx="1"></rect>
                <rect id="Rectangle" fill="#6236FF" opacity="0.74" transform="translate(69.802549, 516.320162) rotate(-285.000000) translate(-69.802549, -516.320162) " x="60.8025485" y="515.320162" width="18" height="2" rx="1"></rect>
                <rect id="Rectangle" fill="#6236FF" opacity="0.9" transform="translate(69.357088, 69.654220) rotate(-89.000000) translate(-69.357088, -69.654220) " x="59.8570878" y="68.6542202" width="19" height="2" rx="1"></rect>
                <path d="M952.259198,537.760129 C953.585109,533.760129 954.918443,531.760129 956.259198,531.760129 C958.27033,531.760129 958.303383,537.760129 960.303045,537.760129 C962.302708,537.760129 962.266943,531.760129 964.259198,531.760129 C966.251452,531.760129 966.271302,537.760129 968.271209,537.760129 C970.271117,537.760129 970.262155,531.760129 972.259198,531.760129 C974.256241,531.760129 974.259198,537.760129 976.259198,537.760129 C978.259198,537.760129 978.259198,531.760129 980.259198,531.760129 C981.592531,531.760129 982.925864,533.760129 984.259198,537.760129" id="Path" stroke="#D7303C" opacity="0.73" transform="translate(968.259198, 534.760129) rotate(-151.000000) translate(-968.259198, -534.760129) "></path>
                <path d="M974.905211,117.956379 C976.189688,114.623045 977.481355,112.956379 978.780211,112.956379 C980.728496,112.956379 980.760515,117.956379 982.697689,117.956379 C984.634862,117.956379 984.600215,112.956379 986.530211,112.956379 C988.460207,112.956379 988.479437,117.956379 990.416848,117.956379 C992.354258,117.956379 992.345576,112.956379 994.280211,112.956379 C996.214847,112.956379 996.217711,117.956379 998.155211,117.956379 C1000.09271,117.956379 1000.09271,112.956379 1002.03021,112.956379 C1003.32188,112.956379 1004.61354,114.623045 1005.90521,117.956379" id="Path" stroke="#D7303C" opacity="0.89" transform="translate(990.405211, 115.456379) rotate(-73.000000) translate(-990.405211, -115.456379) "></path>
                <path d="M843.832186,841.681111 C844.909489,839.014444 845.992822,837.681111 847.082186,837.681111 C848.716231,837.681111 848.743086,841.681111 850.367812,841.681111 C851.992538,841.681111 851.963479,837.681111 853.582186,837.681111 C855.200892,837.681111 855.21702,841.681111 856.841945,841.681111 C858.46687,841.681111 858.459588,837.681111 860.082186,837.681111 C861.704783,837.681111 861.707186,841.681111 863.332186,841.681111 C864.957186,841.681111 864.957186,837.681111 866.582186,837.681111 C867.665519,837.681111 868.748852,839.014444 869.832186,841.681111" id="Path" stroke="#D7303C" opacity="0.89" transform="translate(856.832186, 839.681111) rotate(-262.000000) translate(-856.832186, -839.681111) "></path>
                <path d="M825.731976,647.697657 C826.975018,644.364323 828.225018,642.697657 829.481976,642.697657 C831.367413,642.697657 831.398399,647.697657 833.273083,647.697657 C835.147767,647.697657 835.114238,642.697657 836.981976,642.697657 C838.849714,642.697657 838.868324,647.697657 840.743237,647.697657 C842.61815,647.697657 842.609748,642.697657 844.481976,642.697657 C846.354204,642.697657 846.356976,647.697657 848.231976,647.697657 C850.106976,647.697657 850.106976,642.697657 851.981976,642.697657 C853.231976,642.697657 854.481976,644.364323 855.731976,647.697657" id="Path" stroke="#D7303C" opacity="0.87" transform="translate(840.731976, 645.197657) rotate(-14.000000) translate(-840.731976, -645.197657) "></path>
                <path d="M845.659681,290.793627 C847.027027,286.793627 848.402027,284.793627 849.784681,284.793627 C851.858661,284.793627 851.892747,290.793627 853.954899,290.793627 C856.017051,290.793627 855.980169,284.793627 858.034681,284.793627 C860.089193,284.793627 860.109663,290.793627 862.172068,290.793627 C864.234473,290.793627 864.22523,284.793627 866.284681,284.793627 C868.344132,284.793627 868.347181,290.793627 870.409681,290.793627 C872.472181,290.793627 872.472181,284.793627 874.534681,284.793627 C875.909681,284.793627 877.284681,286.793627 878.659681,290.793627" id="Path" stroke="#D7303C" opacity="0.86" transform="translate(862.159681, 287.793627) rotate(-204.000000) translate(-862.159681, -287.793627) "></path>
                <path d="M694.888686,805.633923 C695.965989,802.967256 697.049323,801.633923 698.138686,801.633923 C699.772731,801.633923 699.799586,805.633923 701.424312,805.633923 C703.049038,805.633923 703.019979,801.633923 704.638686,801.633923 C706.257392,801.633923 706.273521,805.633923 707.898445,805.633923 C709.52337,805.633923 709.516088,801.633923 711.138686,801.633923 C712.761283,801.633923 712.763686,805.633923 714.388686,805.633923 C716.013686,805.633923 716.013686,801.633923 717.638686,801.633923 C718.722019,801.633923 719.805353,802.967256 720.888686,805.633923" id="Path" stroke="#D7303C" opacity="0.79" transform="translate(707.888686, 803.633923) rotate(-135.000000) translate(-707.888686, -803.633923) "></path>
                <path d="M711.000381,373.687988 C712.201988,370.354654 713.410322,368.687988 714.625381,368.687988 C716.44797,368.687988 716.477924,373.687988 718.290118,373.687988 C720.102312,373.687988 720.069901,368.687988 721.875381,368.687988 C723.680861,368.687988 723.69885,373.687988 725.511267,373.687988 C727.323683,373.687988 727.315561,368.687988 729.125381,368.687988 C730.935201,368.687988 730.937881,373.687988 732.750381,373.687988 C734.562881,373.687988 734.562881,368.687988 736.375381,368.687988 C737.583714,368.687988 738.792048,370.354654 740.000381,373.687988" id="Path" stroke="#D7303C" opacity="0.76" transform="translate(725.500381, 371.187988) rotate(-127.000000) translate(-725.500381, -371.187988) "></path>
                <path d="M647.880963,628.043035 C648.999701,624.709702 650.124701,623.043035 651.255963,623.043035 C652.952855,623.043035 652.980744,628.043035 654.667959,628.043035 C656.355174,628.043035 656.324998,623.043035 658.005963,623.043035 C659.686927,623.043035 659.703675,628.043035 661.391097,628.043035 C663.078519,628.043035 663.070957,623.043035 664.755963,623.043035 C666.440968,623.043035 666.443463,628.043035 668.130963,628.043035 C669.818463,628.043035 669.818463,623.043035 671.505963,623.043035 C672.630963,623.043035 673.755963,624.709702 674.880963,628.043035" id="Path" stroke="#D7303C" opacity="0.81" transform="translate(661.380963, 625.543035) rotate(-205.000000) translate(-661.380963, -625.543035) "></path>
                <path d="M471.054942,751.863113 C471.966507,749.196447 472.883173,747.863113 473.804942,747.863113 C475.187596,747.863113 475.210319,751.863113 476.585088,751.863113 C477.959856,751.863113 477.935268,747.863113 479.304942,747.863113 C480.674617,747.863113 480.688264,751.863113 482.0632,751.863113 C483.438137,751.863113 483.431975,747.863113 484.804942,747.863113 C486.177909,747.863113 486.179942,751.863113 487.554942,751.863113 C488.929942,751.863113 488.929942,747.863113 490.304942,747.863113 C491.221609,747.863113 492.138276,749.196447 493.054942,751.863113" id="Path" stroke="#D7303C" opacity="0.76" transform="translate(482.054942, 749.863113) rotate(-106.000000) translate(-482.054942, -749.863113) "></path>
                <path d="M473.816063,436.88106 C474.769062,434.214393 475.727396,432.88106 476.691063,432.88106 C478.136565,432.88106 478.160321,436.88106 479.597579,436.88106 C481.034836,436.88106 481.009131,432.88106 482.441063,432.88106 C483.872996,432.88106 483.887263,436.88106 485.324697,436.88106 C486.76213,436.88106 486.755688,432.88106 488.191063,432.88106 C489.626438,432.88106 489.628563,436.88106 491.066063,436.88106 C492.503563,436.88106 492.503563,432.88106 493.941063,432.88106 C494.899397,432.88106 495.85773,434.214393 496.816063,436.88106" id="Path" stroke="#D7303C" opacity="0.92" transform="translate(485.316063, 434.881060) rotate(-313.000000) translate(-485.316063, -434.881060) "></path>
                <path d="M487.059781,121.533991 C488.344258,118.200658 489.635925,116.533991 490.934781,116.533991 C492.883066,116.533991 492.915086,121.533991 494.852259,121.533991 C496.789432,121.533991 496.754785,116.533991 498.684781,116.533991 C500.614778,116.533991 500.634007,121.533991 502.571418,121.533991 C504.508828,121.533991 504.500146,116.533991 506.434781,116.533991 C508.369417,116.533991 508.372281,121.533991 510.309781,121.533991 C512.247281,121.533991 512.247281,116.533991 514.184781,116.533991 C515.476448,116.533991 516.768115,118.200658 518.059781,121.533991" id="Path" stroke="#D7303C" opacity="0.97" transform="translate(502.559781, 119.033991) rotate(-156.000000) translate(-502.559781, -119.033991) "></path>
                <path d="M384.223881,730.405982 C385.17688,727.739315 386.135213,726.405982 387.098881,726.405982 C388.544382,726.405982 388.568139,730.405982 390.005396,730.405982 C391.442654,730.405982 391.416948,726.405982 392.848881,726.405982 C394.280813,726.405982 394.29508,730.405982 395.732514,730.405982 C397.169948,730.405982 397.163506,726.405982 398.598881,726.405982 C400.034255,726.405982 400.036381,730.405982 401.473881,730.405982 C402.911381,730.405982 402.911381,726.405982 404.348881,726.405982 C405.307214,726.405982 406.265547,727.739315 407.223881,730.405982" id="Path" stroke="#D7303C" opacity="0.82" transform="translate(395.723881, 728.405982) rotate(-87.000000) translate(-395.723881, -728.405982) "></path>
                <path d="M302.423581,307.003722 C303.459449,304.337056 304.501116,303.003722 305.548581,303.003722 C307.119778,303.003722 307.1456,307.003722 308.707837,307.003722 C310.270073,307.003722 310.242132,303.003722 311.798581,303.003722 C313.355029,303.003722 313.370537,307.003722 314.932965,307.003722 C316.495393,307.003722 316.488391,303.003722 318.048581,303.003722 C319.608771,303.003722 319.611081,307.003722 321.173581,307.003722 C322.736081,307.003722 322.736081,303.003722 324.298581,303.003722 C325.340247,303.003722 326.381914,304.337056 327.423581,307.003722" id="Path" stroke="#D7303C" opacity="0.91" transform="translate(314.923581, 305.003722) rotate(-218.000000) translate(-314.923581, -305.003722) "></path>
                <path d="M131.643928,346.558347 C132.804101,343.225014 133.970768,341.558347 135.143928,341.558347 C136.903669,341.558347 136.93259,346.558347 138.682295,346.558347 C140.432,346.558347 140.400706,341.558347 142.143928,341.558347 C143.887151,341.558347 143.90452,346.558347 145.654439,346.558347 C147.404358,346.558347 147.396516,341.558347 149.143928,341.558347 C150.891341,341.558347 150.893928,346.558347 152.643928,346.558347 C154.393928,346.558347 154.393928,341.558347 156.143928,341.558347 C157.310595,341.558347 158.477262,343.225014 159.643928,346.558347" id="Path" stroke="#D7303C" opacity="0.89" transform="translate(145.643928, 344.058347) rotate(-292.000000) translate(-145.643928, -344.058347) "></path>
                <path d="M119.963819,204.750585 C121.248296,201.417252 122.539963,199.750585 123.838819,199.750585 C125.787104,199.750585 125.819123,204.750585 127.756297,204.750585 C129.69347,204.750585 129.658823,199.750585 131.588819,199.750585 C133.518815,199.750585 133.538045,204.750585 135.475456,204.750585 C137.412866,204.750585 137.404184,199.750585 139.338819,199.750585 C141.273455,199.750585 141.276319,204.750585 143.213819,204.750585 C145.151319,204.750585 145.151319,199.750585 147.088819,199.750585 C148.380486,199.750585 149.672153,201.417252 150.963819,204.750585" id="Path" stroke="#D7303C" opacity="0.79" transform="translate(135.463819, 202.250585) rotate(-340.000000) translate(-135.463819, -202.250585) "></path>
            </g>
        </g>
    </g>
</svg>